<svg width="20" height="20" viewBox="0 0 20 20" fill="none" xmlns="http://www.w3.org/2000/svg">
<path fill-rule="evenodd" clip-rule="evenodd" d="M0 5.41667C0 3.98008 0.570683 2.60233 1.5865 1.5865C2.60233 0.570683 3.98008 0 5.41667 0H14.0833C15.5199 0 16.8977 0.570683 17.9135 1.5865C18.9293 2.60233 19.5 3.98008 19.5 5.41667V14.0833C19.5 15.5199 18.9293 16.8977 17.9135 17.9135C16.8977 18.9293 15.5199 19.5 14.0833 19.5H5.41667C3.98008 19.5 2.60233 18.9293 1.5865 17.9135C0.570683 16.8977 0 15.5199 0 14.0833V5.41667ZM5.41667 2.16667C4.55471 2.16667 3.72806 2.50908 3.11857 3.11857C2.50908 3.72806 2.16667 4.55471 2.16667 5.41667V14.0833C2.16667 14.9453 2.50908 15.7719 3.11857 16.3814C3.72806 16.9909 4.55471 17.3333 5.41667 17.3333H14.0833C14.9453 17.3333 15.7719 16.9909 16.3814 16.3814C16.9909 15.7719 17.3333 14.9453 17.3333 14.0833V5.41667C17.3333 4.55471 16.9909 3.72806 16.3814 3.11857C15.7719 2.50908 14.9453 2.16667 14.0833 2.16667H5.41667ZM13.6468 4.56517C13.6468 4.27785 13.7609 4.0023 13.9641 3.79913C14.1672 3.59597 14.4428 3.48183 14.7301 3.48183H14.7409C15.0282 3.48183 15.3038 3.59597 15.5069 3.79913C15.7101 4.0023 15.8243 4.27785 15.8243 4.56517C15.8243 4.85248 15.7101 5.12803 15.5069 5.3312C15.3038 5.53436 15.0282 5.6485 14.7409 5.6485H14.7301C14.4428 5.6485 14.1672 5.53436 13.9641 5.3312C13.7609 5.12803 13.6468 4.85248 13.6468 4.56517ZM9.75 6.5C8.88805 6.5 8.0614 6.84241 7.4519 7.4519C6.84241 8.0614 6.5 8.88805 6.5 9.75C6.5 10.612 6.84241 11.4386 7.4519 12.0481C8.0614 12.6576 8.88805 13 9.75 13C10.612 13 11.4386 12.6576 12.0481 12.0481C12.6576 11.4386 13 10.612 13 9.75C13 8.88805 12.6576 8.0614 12.0481 7.4519C11.4386 6.84241 10.612 6.5 9.75 6.5ZM4.33333 9.75C4.33333 8.31341 4.90402 6.93566 5.91984 5.91984C6.93566 4.90402 8.31341 4.33333 9.75 4.33333C11.1866 4.33333 12.5643 4.90402 13.5802 5.91984C14.596 6.93566 15.1667 8.31341 15.1667 9.75C15.1667 11.1866 14.596 12.5643 13.5802 13.5802C12.5643 14.596 11.1866 15.1667 9.75 15.1667C8.31341 15.1667 6.93566 14.596 5.91984 13.5802C4.90402 12.5643 4.33333 11.1866 4.33333 9.75Z" fill="white"/>
</svg>
